<svg width="24" height="24" viewBox="0 0 24 24" fill="none" xmlns="http://www.w3.org/2000/svg">
<path d="M16.3 13.275C16.1167 13.0917 16.025 12.8584 16.025 12.575C16.025 12.2917 16.1167 12.0584 16.3 11.875L18.175 10H12C11.7167 10 11.4794 9.90405 11.288 9.71205C11.096 9.52072 11 9.28338 11 9.00005C11 8.71672 11.096 8.47905 11.288 8.28705C11.4794 8.09572 11.7167 8.00005 12 8.00005H18.175L16.3 6.12505C16.1167 5.94172 16.025 5.70405 16.025 5.41205C16.025 5.12072 16.1167 4.88338 16.3 4.70005C16.4834 4.51672 16.7167 4.42505 17 4.42505C17.2834 4.42505 17.5167 4.51672 17.7 4.70005L21.3 8.30005C21.4 8.40005 21.4711 8.50838 21.5131 8.62505C21.5544 8.74172 21.5751 8.86672 21.5751 9.00005C21.5751 9.13338 21.5544 9.25838 21.5131 9.37505C21.4711 9.49172 21.4 9.60005 21.3 9.70005L17.7 13.3C17.5167 13.4834 17.2834 13.5707 17 13.562C16.7167 13.554 16.4834 13.4584 16.3 13.275ZM6.30005 19.3L2.70005 15.7C2.60005 15.6 2.52938 15.4917 2.48805 15.375C2.44605 15.2584 2.42505 15.1334 2.42505 15C2.42505 14.8667 2.44605 14.7417 2.48805 14.625C2.52938 14.5084 2.60005 14.4 2.70005 14.3L6.30005 10.7C6.48338 10.5167 6.71672 10.425 7.00005 10.425C7.28338 10.425 7.51672 10.5167 7.70005 10.7C7.88338 10.8834 7.97505 11.1207 7.97505 11.412C7.97505 11.704 7.88338 11.9417 7.70005 12.125L5.82505 14H12C12.2834 14 12.521 14.0957 12.713 14.287C12.9044 14.479 13 14.7167 13 15C13 15.2834 12.9044 15.5207 12.713 15.712C12.521 15.904 12.2834 16 12 16H5.82505L7.70005 17.875C7.88338 18.0584 7.97505 18.2917 7.97505 18.575C7.97505 18.8584 7.88338 19.0917 7.70005 19.275C7.51672 19.4584 7.28338 19.554 7.00005 19.562C6.71672 19.5707 6.48338 19.4834 6.30005 19.3Z" fill="#EA8C1F"/>
</svg>
