<svg aria-hidden="true" style="position: absolute; width: 0; height: 0; overflow: hidden;" version="1.1">
  <defs>
    <symbol id="icon-arrowLeft" viewBox="0 0 12 10">
      <path d="M6.975 8.95626C6.825 8.80626 6.753 8.62501 6.759 8.41251C6.7655 8.20001 6.84375 8.01876 6.99375 7.86876L9.1125 5.75001H0.75C0.5375 5.75001 0.35925 5.67801 0.21525 5.53401C0.0717501 5.39051 0 5.21251 0 5.00001C0 4.78751 0.0717501 4.60926 0.21525 4.46526C0.35925 4.32176 0.5375 4.25001 0.75 4.25001H9.1125L6.975 2.11251C6.825 1.96251 6.75 1.78426 6.75 1.57776C6.75 1.37176 6.825 1.19376 6.975 1.04376C7.125 0.893756 7.30325 0.818756 7.50975 0.818756C7.71575 0.818756 7.89375 0.893756 8.04375 1.04376L11.475 4.47501C11.55 4.55001 11.6033 4.63126 11.6348 4.71876C11.6658 4.80626 11.6813 4.90001 11.6813 5.00001C11.6813 5.10001 11.6658 5.19376 11.6348 5.28126C11.6033 5.36876 11.55 5.45001 11.475 5.52501L8.025 8.97501C7.8875 9.1125 7.71575 9.18126 7.50975 9.18126C7.30325 9.18126 7.125 9.10626 6.975 8.95626Z"/>
    </symbol>
    <symbol id="icon-empty" viewBox="0 0 24 24">
    </symbol>
  </defs>
</svg>