<svg width="20" height="16" viewBox="0 0 20 16" fill="none" xmlns="http://www.w3.org/2000/svg">
<path d="M14.3 9.27505C14.1167 9.09171 14.025 8.85838 14.025 8.57505C14.025 8.29172 14.1167 8.05838 14.3 7.87505L16.175 6.00005H10C9.71672 6.00005 9.47938 5.90405 9.28805 5.71205C9.09605 5.52072 9.00005 5.28338 9.00005 5.00005C9.00005 4.71672 9.09605 4.47905 9.28805 4.28705C9.47938 4.09572 9.71672 4.00005 10 4.00005H16.175L14.3 2.12505C14.1167 1.94172 14.025 1.70405 14.025 1.41205C14.025 1.12072 14.1167 0.883382 14.3 0.700048C14.4834 0.516715 14.7167 0.425049 15 0.425049C15.2834 0.425049 15.5167 0.516715 15.7 0.700048L19.3 4.30005C19.4 4.40005 19.4711 4.50838 19.5131 4.62505C19.5544 4.74172 19.5751 4.86672 19.5751 5.00005C19.5751 5.13338 19.5544 5.25838 19.5131 5.37505C19.4711 5.49172 19.4 5.60005 19.3 5.70005L15.7 9.30005C15.5167 9.48338 15.2834 9.57072 15 9.56205C14.7167 9.55405 14.4834 9.45838 14.3 9.27505ZM4.30005 15.3L0.700049 11.7C0.600049 11.6 0.529382 11.4917 0.488049 11.375C0.446049 11.2584 0.425049 11.1334 0.425049 11C0.425049 10.8667 0.446049 10.7417 0.488049 10.625C0.529382 10.5084 0.600049 10.4 0.700049 10.3L4.30005 6.70005C4.48338 6.51672 4.71672 6.42505 5.00005 6.42505C5.28338 6.42505 5.51672 6.51672 5.70005 6.70005C5.88338 6.88338 5.97505 7.12071 5.97505 7.41205C5.97505 7.70405 5.88338 7.94172 5.70005 8.12505L3.82505 10H10C10.2834 10 10.521 10.0957 10.713 10.287C10.9044 10.479 11 10.7167 11 11C11 11.2834 10.9044 11.5207 10.713 11.712C10.521 11.904 10.2834 12 10 12H3.82505L5.70005 13.875C5.88338 14.0584 5.97505 14.2917 5.97505 14.575C5.97505 14.8584 5.88338 15.0917 5.70005 15.275C5.51672 15.4584 5.28338 15.554 5.00005 15.562C4.71672 15.5707 4.48338 15.4834 4.30005 15.3Z" fill="#EA8C1F"/>
</svg>
